<svg xmlns="http://www.w3.org/2000/svg" version="1.1" xmlns:xlink="http://www.w3.org/1999/xlink" xmlns:svgjs="http://svgjs.dev/svgjs" viewBox="0 0 800 800" opacity="0.23" width="800" height="800"><g stroke-width="2" stroke="#3419e8" fill="none"><rect width="80" height="57.142857142857146" x="0" y="0"></rect><rect width="80" height="57.142857142857146" x="80" y="0"></rect><rect width="80" height="57.142857142857146" x="160" y="0"></rect><rect width="80" height="57.142857142857146" x="240" y="0"></rect><rect width="80" height="57.142857142857146" x="320" y="0"></rect><rect width="80" height="57.142857142857146" x="400" y="0"></rect><rect width="80" height="57.142857142857146" x="480" y="0"></rect><rect width="80" height="57.142857142857146" x="560" y="0"></rect><rect width="80" height="57.142857142857146" x="640" y="0"></rect><rect width="80" height="57.142857142857146" x="720" y="0"></rect><rect width="80" height="57.142857142857146" x="800" y="0"></rect><rect width="80" height="57.142857142857146" x="0" y="57.142857142857146"></rect><rect width="80" height="57.142857142857146" x="80" y="57.142857142857146"></rect><rect width="80" height="57.142857142857146" x="160" y="57.142857142857146"></rect><rect width="80" height="57.142857142857146" x="240" y="57.142857142857146"></rect><rect width="80" height="57.142857142857146" x="320" y="57.142857142857146"></rect><rect width="80" height="57.142857142857146" x="400" y="57.142857142857146"></rect><rect width="80" height="57.142857142857146" x="480" y="57.142857142857146"></rect><rect width="80" height="57.142857142857146" x="560" y="57.142857142857146"></rect><rect width="80" height="57.142857142857146" x="640" y="57.142857142857146"></rect><rect width="80" height="57.142857142857146" x="720" y="57.142857142857146"></rect><rect width="80" height="57.142857142857146" x="800" y="57.142857142857146"></rect><rect width="80" height="57.142857142857146" x="0" y="114.28571428571429"></rect><rect width="80" height="57.142857142857146" x="80" y="114.28571428571429"></rect><rect width="80" height="57.142857142857146" x="160" y="114.28571428571429"></rect><rect width="80" height="57.142857142857146" x="240" y="114.28571428571429"></rect><rect width="80" height="57.142857142857146" x="320" y="114.28571428571429"></rect><rect width="80" height="57.142857142857146" x="400" y="114.28571428571429"></rect><rect width="80" height="57.142857142857146" x="480" y="114.28571428571429"></rect><rect width="80" height="57.142857142857146" x="560" y="114.28571428571429"></rect><rect width="80" height="57.142857142857146" x="640" y="114.28571428571429"></rect><rect width="80" height="57.142857142857146" x="720" y="114.28571428571429"></rect><rect width="80" height="57.142857142857146" x="800" y="114.28571428571429"></rect><rect width="80" height="57.142857142857146" x="0" y="171.42857142857144"></rect><rect width="80" height="57.142857142857146" x="80" y="171.42857142857144"></rect><rect width="80" height="57.142857142857146" x="160" y="171.42857142857144"></rect><rect width="80" height="57.142857142857146" x="240" y="171.42857142857144"></rect><rect width="80" height="57.142857142857146" x="320" y="171.42857142857144"></rect><rect width="80" height="57.142857142857146" x="400" y="171.42857142857144"></rect><rect width="80" height="57.142857142857146" x="480" y="171.42857142857144"></rect><rect width="80" height="57.142857142857146" x="560" y="171.42857142857144"></rect><rect width="80" height="57.142857142857146" x="640" y="171.42857142857144"></rect><rect width="80" height="57.142857142857146" x="720" y="171.42857142857144"></rect><rect width="80" height="57.142857142857146" x="800" y="171.42857142857144"></rect><rect width="80" height="57.142857142857146" x="0" y="228.57142857142858"></rect><rect width="80" height="57.142857142857146" x="80" y="228.57142857142858"></rect><rect width="80" height="57.142857142857146" x="160" y="228.57142857142858"></rect><rect width="80" height="57.142857142857146" x="240" y="228.57142857142858"></rect><rect width="80" height="57.142857142857146" x="320" y="228.57142857142858"></rect><rect width="80" height="57.142857142857146" x="400" y="228.57142857142858"></rect><rect width="80" height="57.142857142857146" x="480" y="228.57142857142858"></rect><rect width="80" height="57.142857142857146" x="560" y="228.57142857142858"></rect><rect width="80" height="57.142857142857146" x="640" y="228.57142857142858"></rect><rect width="80" height="57.142857142857146" x="720" y="228.57142857142858"></rect><rect width="80" height="57.142857142857146" x="800" y="228.57142857142858"></rect><rect width="80" height="57.142857142857146" x="0" y="285.7142857142857"></rect><rect width="80" height="57.142857142857146" x="80" y="285.7142857142857"></rect><rect width="80" height="57.142857142857146" x="160" y="285.7142857142857"></rect><rect width="80" height="57.142857142857146" x="240" y="285.7142857142857"></rect><rect width="80" height="57.142857142857146" x="320" y="285.7142857142857"></rect><rect width="80" height="57.142857142857146" x="400" y="285.7142857142857"></rect><rect width="80" height="57.142857142857146" x="480" y="285.7142857142857"></rect><rect width="80" height="57.142857142857146" x="560" y="285.7142857142857"></rect><rect width="80" height="57.142857142857146" x="640" y="285.7142857142857"></rect><rect width="80" height="57.142857142857146" x="720" y="285.7142857142857"></rect><rect width="80" height="57.142857142857146" x="800" y="285.7142857142857"></rect><rect width="80" height="57.142857142857146" x="0" y="342.8571428571429"></rect><rect width="80" height="57.142857142857146" x="80" y="342.8571428571429"></rect><rect width="80" height="57.142857142857146" x="160" y="342.8571428571429"></rect><rect width="80" height="57.142857142857146" x="240" y="342.8571428571429"></rect><rect width="80" height="57.142857142857146" x="320" y="342.8571428571429"></rect><rect width="80" height="57.142857142857146" x="400" y="342.8571428571429"></rect><rect width="80" height="57.142857142857146" x="480" y="342.8571428571429"></rect><rect width="80" height="57.142857142857146" x="560" y="342.8571428571429"></rect><rect width="80" height="57.142857142857146" x="640" y="342.8571428571429"></rect><rect width="80" height="57.142857142857146" x="720" y="342.8571428571429"></rect><rect width="80" height="57.142857142857146" x="800" y="342.8571428571429"></rect><rect width="80" height="57.142857142857146" x="0" y="400.00000000000006"></rect><rect width="80" height="57.142857142857146" x="80" y="400.00000000000006"></rect><rect width="80" height="57.142857142857146" x="160" y="400.00000000000006"></rect><rect width="80" height="57.142857142857146" x="240" y="400.00000000000006"></rect><rect width="80" height="57.142857142857146" x="320" y="400.00000000000006"></rect><rect width="80" height="57.142857142857146" x="400" y="400.00000000000006"></rect><rect width="80" height="57.142857142857146" x="480" y="400.00000000000006"></rect><rect width="80" height="57.142857142857146" x="560" y="400.00000000000006"></rect><rect width="80" height="57.142857142857146" x="640" y="400.00000000000006"></rect><rect width="80" height="57.142857142857146" x="720" y="400.00000000000006"></rect><rect width="80" height="57.142857142857146" x="800" y="400.00000000000006"></rect><rect width="80" height="57.142857142857146" x="0" y="457.1428571428572"></rect><rect width="80" height="57.142857142857146" x="80" y="457.1428571428572"></rect><rect width="80" height="57.142857142857146" x="160" y="457.1428571428572"></rect><rect width="80" height="57.142857142857146" x="240" y="457.1428571428572"></rect><rect width="80" height="57.142857142857146" x="320" y="457.1428571428572"></rect><rect width="80" height="57.142857142857146" x="400" y="457.1428571428572"></rect><rect width="80" height="57.142857142857146" x="480" y="457.1428571428572"></rect><rect width="80" height="57.142857142857146" x="560" y="457.1428571428572"></rect><rect width="80" height="57.142857142857146" x="640" y="457.1428571428572"></rect><rect width="80" height="57.142857142857146" x="720" y="457.1428571428572"></rect><rect width="80" height="57.142857142857146" x="800" y="457.1428571428572"></rect><rect width="80" height="57.142857142857146" x="0" y="514.2857142857143"></rect><rect width="80" height="57.142857142857146" x="80" y="514.2857142857143"></rect><rect width="80" height="57.142857142857146" x="160" y="514.2857142857143"></rect><rect width="80" height="57.142857142857146" x="240" y="514.2857142857143"></rect><rect width="80" height="57.142857142857146" x="320" y="514.2857142857143"></rect><rect width="80" height="57.142857142857146" x="400" y="514.2857142857143"></rect><rect width="80" height="57.142857142857146" x="480" y="514.2857142857143"></rect><rect width="80" height="57.142857142857146" x="560" y="514.2857142857143"></rect><rect width="80" height="57.142857142857146" x="640" y="514.2857142857143"></rect><rect width="80" height="57.142857142857146" x="720" y="514.2857142857143"></rect><rect width="80" height="57.142857142857146" x="800" y="514.2857142857143"></rect><rect width="80" height="57.142857142857146" x="0" y="571.4285714285714"></rect><rect width="80" height="57.142857142857146" x="80" y="571.4285714285714"></rect><rect width="80" height="57.142857142857146" x="160" y="571.4285714285714"></rect><rect width="80" height="57.142857142857146" x="240" y="571.4285714285714"></rect><rect width="80" height="57.142857142857146" x="320" y="571.4285714285714"></rect><rect width="80" height="57.142857142857146" x="400" y="571.4285714285714"></rect><rect width="80" height="57.142857142857146" x="480" y="571.4285714285714"></rect><rect width="80" height="57.142857142857146" x="560" y="571.4285714285714"></rect><rect width="80" height="57.142857142857146" x="640" y="571.4285714285714"></rect><rect width="80" height="57.142857142857146" x="720" y="571.4285714285714"></rect><rect width="80" height="57.142857142857146" x="800" y="571.4285714285714"></rect><rect width="80" height="57.142857142857146" x="0" y="628.5714285714286"></rect><rect width="80" height="57.142857142857146" x="80" y="628.5714285714286"></rect><rect width="80" height="57.142857142857146" x="160" y="628.5714285714286"></rect><rect width="80" height="57.142857142857146" x="240" y="628.5714285714286"></rect><rect width="80" height="57.142857142857146" x="320" y="628.5714285714286"></rect><rect width="80" height="57.142857142857146" x="400" y="628.5714285714286"></rect><rect width="80" height="57.142857142857146" x="480" y="628.5714285714286"></rect><rect width="80" height="57.142857142857146" x="560" y="628.5714285714286"></rect><rect width="80" height="57.142857142857146" x="640" y="628.5714285714286"></rect><rect width="80" height="57.142857142857146" x="720" y="628.5714285714286"></rect><rect width="80" height="57.142857142857146" x="800" y="628.5714285714286"></rect><rect width="80" height="57.142857142857146" x="0" y="685.7142857142857"></rect><rect width="80" height="57.142857142857146" x="80" y="685.7142857142857"></rect><rect width="80" height="57.142857142857146" x="160" y="685.7142857142857"></rect><rect width="80" height="57.142857142857146" x="240" y="685.7142857142857"></rect><rect width="80" height="57.142857142857146" x="320" y="685.7142857142857"></rect><rect width="80" height="57.142857142857146" x="400" y="685.7142857142857"></rect><rect width="80" height="57.142857142857146" x="480" y="685.7142857142857"></rect><rect width="80" height="57.142857142857146" x="560" y="685.7142857142857"></rect><rect width="80" height="57.142857142857146" x="640" y="685.7142857142857"></rect><rect width="80" height="57.142857142857146" x="720" y="685.7142857142857"></rect><rect width="80" height="57.142857142857146" x="800" y="685.7142857142857"></rect><rect width="80" height="57.142857142857146" x="0" y="742.8571428571428"></rect><rect width="80" height="57.142857142857146" x="80" y="742.8571428571428"></rect><rect width="80" height="57.142857142857146" x="160" y="742.8571428571428"></rect><rect width="80" height="57.142857142857146" x="240" y="742.8571428571428"></rect><rect width="80" height="57.142857142857146" x="320" y="742.8571428571428"></rect><rect width="80" height="57.142857142857146" x="400" y="742.8571428571428"></rect><rect width="80" height="57.142857142857146" x="480" y="742.8571428571428"></rect><rect width="80" height="57.142857142857146" x="560" y="742.8571428571428"></rect><rect width="80" height="57.142857142857146" x="640" y="742.8571428571428"></rect><rect width="80" height="57.142857142857146" x="720" y="742.8571428571428"></rect><rect width="80" height="57.142857142857146" x="800" y="742.8571428571428"></rect><rect width="80" height="57.142857142857146" x="0" y="799.9999999999999"></rect><rect width="80" height="57.142857142857146" x="80" y="799.9999999999999"></rect><rect width="80" height="57.142857142857146" x="160" y="799.9999999999999"></rect><rect width="80" height="57.142857142857146" x="240" y="799.9999999999999"></rect><rect width="80" height="57.142857142857146" x="320" y="799.9999999999999"></rect><rect width="80" height="57.142857142857146" x="400" y="799.9999999999999"></rect><rect width="80" height="57.142857142857146" x="480" y="799.9999999999999"></rect><rect width="80" height="57.142857142857146" x="560" y="799.9999999999999"></rect><rect width="80" height="57.142857142857146" x="640" y="799.9999999999999"></rect><rect width="80" height="57.142857142857146" x="720" y="799.9999999999999"></rect><rect width="80" height="57.142857142857146" x="800" y="799.9999999999999"></rect></g></svg>