<svg width="48px" height="48px"  viewBox="0 0 640 481" fill="none" xmlns="http://www.w3.org/2000/svg">
<path d="M301.836 362.916C301.236 363.996 301.536 363.516 301.836 362.916ZM550.966 275.916C530.854 275.909 511.009 280.528 492.966 289.416C487.066 277.516 480.966 267.116 479.966 259.316C478.766 250.216 477.466 244.816 478.866 234.016C480.266 223.216 486.566 207.916 486.466 206.816C486.366 205.716 485.066 200.216 472.166 200.116C459.266 200.016 448.166 202.616 446.876 206.016C444.598 212.229 442.826 218.617 441.576 225.116C439.276 236.816 415.786 278.616 402.486 300.416C398.086 291.916 394.386 284.416 393.586 278.416C392.386 269.316 391.086 263.916 392.486 253.116C393.886 242.316 400.186 227.016 400.086 225.916C399.986 224.816 398.686 219.316 385.796 219.216C372.906 219.116 361.796 221.716 360.496 225.116C359.196 228.516 357.796 236.516 355.196 244.216C352.596 251.916 321.306 321.516 313.116 339.616C308.916 348.816 305.316 356.216 302.716 361.216C302.316 362.016 302.016 362.516 301.816 362.916C302.116 362.416 302.316 361.916 302.316 362.116C300.116 366.416 298.816 368.816 298.816 368.816V368.916C297.116 372.116 295.216 375.016 294.316 375.016C293.716 375.016 292.416 366.616 294.616 355.116C299.316 330.916 310.416 293.316 310.316 292.016C310.216 291.316 312.416 284.816 303.016 281.316C293.916 278.016 290.616 283.516 289.816 283.516C289.016 283.516 288.416 285.516 288.416 285.516C288.416 285.516 298.516 243.116 269.026 243.116C250.626 243.116 225.026 263.316 212.446 281.616C204.546 285.916 187.446 295.216 169.446 305.116C162.546 308.916 155.446 312.816 148.746 316.516C148.246 316.016 147.846 315.516 147.346 315.016C111.556 276.816 45.4764 249.816 48.2764 198.516C49.2764 179.816 55.7764 130.716 175.346 71.1158C273.346 22.3158 351.696 35.7158 365.186 65.5158C384.586 108.016 323.296 187.116 221.526 198.516C182.736 202.816 162.346 187.816 157.246 182.216C151.946 176.316 151.146 176.016 149.146 177.116C145.846 178.916 147.946 184.116 149.146 187.216C152.146 195.116 164.646 209.116 185.936 216.116C204.636 222.216 250.116 225.616 305.106 204.316C366.886 180.516 414.976 114.216 400.876 58.7158C386.516 2.31576 292.996 -16.1842 204.566 15.2158C151.876 33.9158 94.8964 63.3158 53.9064 101.616C5.21644 147.216 -2.57356 186.916 0.626437 203.516C12.0164 262.416 93.1964 300.816 125.686 329.216C124.086 330.116 122.586 330.916 121.186 331.716C104.896 339.816 43.0064 372.216 27.5164 406.416C10.0164 445.216 30.4164 473.016 43.8064 476.816C85.5964 488.416 128.386 467.516 151.376 433.216C174.366 398.916 171.576 354.116 160.976 333.716C160.876 333.416 160.676 333.216 160.576 332.916C164.776 330.416 169.076 327.916 173.376 325.416C181.666 320.516 189.766 316.016 196.866 312.116C192.866 322.916 189.966 335.916 188.466 354.716C186.666 376.716 195.766 405.216 207.566 416.416C212.766 421.316 219.056 421.416 222.956 421.416C236.756 421.416 242.956 410.016 249.846 396.416C258.346 379.816 265.846 360.516 265.846 360.516C265.846 360.516 256.446 412.716 282.146 412.716C291.536 412.716 300.936 400.616 305.146 394.416V394.516C305.146 394.516 305.346 394.116 305.846 393.316C306.846 391.816 307.346 390.916 307.346 390.916V390.616C311.146 384.116 319.446 369.216 331.936 344.616C348.136 312.816 363.626 273.116 363.626 273.116C365.123 281.843 367.194 290.462 369.826 298.916C372.626 308.416 378.526 318.816 383.226 328.916C379.426 334.116 377.126 337.116 377.126 337.116C377.134 337.193 377.169 337.264 377.226 337.316C374.226 341.316 370.826 345.616 367.326 349.816C354.536 365.016 339.326 382.416 337.326 387.416C334.926 393.316 335.526 397.716 340.126 401.116C343.526 403.716 349.526 404.116 355.816 403.616C367.316 402.816 375.416 400.016 379.316 398.216C386.506 395.638 393.302 392.07 399.506 387.616C412.006 378.416 419.606 365.216 418.906 347.816C418.506 338.216 415.406 328.616 411.606 319.616C412.706 318.016 413.906 316.316 415.006 314.616C434.796 285.716 450.096 253.996 450.096 253.996C451.593 262.723 453.664 271.342 456.296 279.796C458.696 287.896 463.386 296.796 467.686 305.496C449.096 320.596 437.596 338.096 433.596 349.596C426.196 370.896 431.996 380.496 442.896 382.696C447.796 383.696 454.796 381.396 459.996 379.196C467.719 376.623 475.001 372.88 481.586 368.096C494.086 358.896 506.176 345.996 505.376 328.496C505.076 320.596 502.876 312.696 499.976 305.096C515.676 298.496 536.066 294.896 562.066 297.896C617.746 304.396 628.646 339.196 626.546 353.696C624.446 368.196 612.746 376.296 608.846 378.696C604.946 381.096 603.746 381.996 604.046 383.796C604.546 386.396 606.346 386.296 609.646 385.696C614.246 384.896 638.836 373.896 639.936 346.996C641.536 312.996 608.846 275.596 550.936 275.896L550.966 275.916ZM121.786 420.616C103.396 440.716 77.5964 448.316 66.5064 441.916C54.6064 434.996 59.3064 405.416 81.9964 383.996C95.7964 370.996 113.586 358.996 125.386 351.596C128.086 349.996 131.986 347.596 136.786 344.696C137.586 344.196 137.986 343.996 137.986 343.996C138.886 343.396 139.886 342.896 140.886 342.296C149.176 372.696 141.186 399.496 121.786 420.596V420.616ZM256.146 329.216C249.746 344.916 236.256 384.916 228.056 382.816C221.056 381.016 216.756 350.516 226.656 320.516C231.656 305.416 242.256 287.416 248.556 280.416C258.646 269.116 269.746 265.516 272.346 270.016C275.846 275.916 260.146 319.416 256.146 329.216ZM367.146 382.216C364.446 383.616 361.946 384.516 360.746 383.816C359.846 383.316 361.846 381.416 361.846 381.416C361.846 381.416 375.746 366.516 381.246 359.716C384.446 355.716 388.146 351.016 392.136 345.816C392.136 346.316 392.236 346.816 392.236 347.416C392.106 365.316 374.916 377.416 367.116 382.216H367.146ZM452.726 362.716C450.726 361.316 451.026 356.616 457.726 342.016C460.326 336.316 466.316 326.716 476.726 317.516C477.905 320.998 478.546 324.64 478.626 328.316C478.526 350.816 462.426 359.216 452.736 362.716H452.726Z" fill="url(#paint0_linear_2_20)"/>
<defs>
<linearGradient id="paint0_linear_2_20" x1="319.996" y1="0" x2="319.996" y2="480.039" gradientUnits="userSpaceOnUse">
<stop stop-color="#3419e8"/>
</linearGradient>
</defs>
</svg>
