<svg width="498" height="513" viewBox="0 0 498 513" fill="none" xmlns="http://www.w3.org/2000/svg">
<path d="M497.07 115.832C496.991 115.599 496.898 115.372 496.79 115.152C496.647 114.722 496.47 114.304 496.26 113.902C496.098 113.652 495.917 113.415 495.72 113.192C495.5 112.864 495.26 112.55 495 112.252C494.77 112.032 494.48 111.852 494.23 111.652C493.945 111.406 493.644 111.179 493.33 110.972L397.07 55.5518C395.854 54.8496 394.474 54.48 393.07 54.48C391.666 54.48 390.286 54.8496 389.07 55.5518L292.79 111.002C292.481 111.211 292.187 111.442 291.91 111.692C291.637 111.875 291.377 112.075 291.13 112.292C290.868 112.584 290.628 112.895 290.41 113.222C290.24 113.462 290.02 113.672 289.87 113.932C289.668 114.336 289.494 114.754 289.35 115.182C289.27 115.412 289.14 115.622 289.07 115.862C288.887 116.54 288.793 117.239 288.79 117.942V223.182L208.57 269.372V63.4418C208.572 62.7357 208.478 62.0326 208.29 61.3518C208.23 61.1118 208.09 60.9018 208.01 60.6718C207.87 60.2452 207.696 59.8305 207.49 59.4318C207.35 59.1718 207.12 58.9618 206.95 58.7118C206.73 58.3836 206.49 58.0696 206.23 57.7718C205.981 57.5584 205.72 57.3581 205.45 57.1718C205.17 56.9287 204.876 56.7016 204.57 56.4918L108.28 1.0718C107.064 0.36965 105.684 0 104.28 0C102.876 0 101.496 0.36965 100.28 1.0718L4.01003 56.4918C3.69748 56.6962 3.40306 56.927 3.13003 57.1818C2.85425 57.3649 2.59038 57.5653 2.34003 57.7818C2.08139 58.0744 1.84411 58.3852 1.63003 58.7118C1.45003 58.9618 1.23003 59.1718 1.08003 59.4318C0.87511 59.8299 0.704493 60.2447 0.57003 60.6718C0.460811 60.8895 0.363989 61.1132 0.28003 61.3418C0.0960594 62.0267 0.00193665 62.7326 2.96555e-05 63.4418V393.142C-0.00380354 394.55 0.364029 395.934 1.06637 397.154C1.76871 398.374 2.78067 399.388 4.00003 400.092L196.5 510.932C196.928 511.148 197.373 511.328 197.83 511.472C198.04 511.552 198.24 511.672 198.46 511.732C199.803 512.092 201.217 512.092 202.56 511.732C202.76 511.682 202.93 511.572 203.11 511.512C203.593 511.36 204.061 511.166 204.51 510.932L397.07 400.092C398.289 399.388 399.301 398.374 400.004 397.154C400.706 395.934 401.074 394.55 401.07 393.142V287.882L493.31 234.772C494.537 234.064 495.554 233.042 496.256 231.813C496.959 230.583 497.323 229.188 497.31 227.772V117.922C497.316 117.218 497.235 116.516 497.07 115.832ZM104.27 17.2818L184.46 63.4318L104.26 109.612L24.08 63.4418L104.27 17.2818ZM192.52 77.2818V278.602L145.99 305.392L112.3 324.792V123.502L158.83 96.7118L192.52 77.2818ZM192.52 490.062L16.04 388.502V77.3218L49.73 96.7018L96.25 123.502V338.682C96.2703 338.984 96.3104 339.285 96.37 339.582C96.394 339.979 96.4475 340.373 96.53 340.762C96.6317 341.072 96.7588 341.373 96.91 341.662C97.0214 342.006 97.1619 342.341 97.33 342.662C97.5149 342.933 97.7152 343.194 97.93 343.442C98.1301 343.737 98.3506 344.018 98.59 344.282C98.82 344.502 99.11 344.662 99.36 344.862C99.6331 345.099 99.9203 345.319 100.22 345.522L192.41 397.702L192.52 490.062ZM200.52 383.892L120.46 338.572L204.55 290.162L296.81 237.052L376.94 283.182L318.14 316.742L200.52 383.892ZM385.04 388.462L208.55 490.112V397.802L339.27 323.202L385.04 297.052V388.462ZM385.04 269.332L351.35 250.002L304.82 223.212V131.792L338.51 151.192L385.04 178.002V269.332ZM393.04 164.052L312.84 117.882L393.04 71.7218L473.22 117.872L393.04 164.052ZM401.04 269.332V178.002L447.67 151.192L481.35 131.792V223.182L401.04 269.332Z" fill="url(#paint0_linear_2_14)"/>
<defs>
<linearGradient id="paint0_linear_2_14" x1="248.655" y1="0" x2="248.655" y2="512.002" gradientUnits="userSpaceOnUse">
<stop stop-color="#3419e8"/>
</linearGradient>
</defs>
</svg>
