<svg  width="48px" height="48px" viewBox="0 0 448 448" fill="none" xmlns="http://www.w3.org/2000/svg">
<path d="M0 0V448H448V0H0ZM243.8 349.4C243.8 393 218.2 412.9 180.9 412.9C147.2 412.9 127.7 395.5 117.7 374.4L152 353.7C158.6 365.4 164.6 375.3 179.1 375.3C192.9 375.3 201.7 369.9 201.7 348.8V205.7H243.8V349.4ZM343.4 412.9C304.3 412.9 279 394.3 266.7 369.9L301 350.1C310 364.8 321.8 375.7 342.5 375.7C359.9 375.7 371.1 367 371.1 354.9C371.1 340.5 359.7 335.4 340.4 326.9L329.9 322.4C299.5 309.5 279.4 293.2 279.4 258.9C279.4 227.3 303.5 203.3 341 203.3C367.8 203.3 387 212.6 400.8 237L368 258C360.8 245.1 353 240 340.9 240C328.6 240 320.8 247.8 320.8 258C320.8 270.6 328.6 275.7 346.7 283.6L357.2 288.1C393 303.4 413.1 319.1 413.1 354.3C413.1 392.1 383.3 412.9 343.4 412.9Z" fill="url(#paint0_linear_2_12)"/>
<defs>
<linearGradient id="paint0_linear_2_12" x1="224" y1="0" x2="224" y2="448" gradientUnits="userSpaceOnUse">
<stop stop-color="#3419e8"/>

</linearGradient>
</defs>
</svg>
