<svg width="640" height="337" viewBox="0 0 640 337" fill="none" xmlns="http://www.w3.org/2000/svg">
<path d="M320 16.8C491.4 16.8 623.2 89 623.2 168.3C623.2 247.6 491.3 319.8 320 319.8C148.6 319.8 16.8 247.6 16.8 168.3C16.8 89 148.7 16.8 320 16.8ZM320 0C143.3 0 0 75.3 0 168.3C0 261.3 143.3 336.6 320 336.6C496.7 336.6 640 261.3 640 168.3C640 75.3 496.7 0 320 0ZM218.2 154.8C210.3 195.3 182.4 191.1 148.1 191.1L161.8 120.5C199.8 120.5 225.6 116.4 218.2 154.8ZM97.4 262.6H134.1L142.8 217.8C183.9 217.8 209.4 220.8 233 198.7C259.1 174.7 265.9 132 247.3 110.6C237.6 99.4 222 93.9 200.8 93.9H130.1L97.4 262.6ZM283.1 49H319.6L310.9 93.8C342.4 93.8 371.6 91.5 385.7 104.5C400.5 118.1 393.4 135.5 377.4 217.6H340.4C355.8 138.2 358.7 131.6 353.1 125.6C347.7 119.8 335.4 121 305.7 121L286.9 217.6H250.4L283.1 49ZM505 154.8C497 195.9 468.3 191.1 434.9 191.1L448.6 120.5C486.8 120.5 512.4 116.4 505 154.8ZM384.2 262.6H421L429.7 217.8C472.9 217.8 496.8 220.3 519.9 198.7C546 174.7 552.8 132 534.2 110.6C524.5 99.4 508.9 93.9 487.7 93.9H417L384.2 262.6Z" fill="url(#paint0_linear_2_18)"/>
<defs>
<linearGradient id="paint0_linear_2_18" x1="320" y1="0" x2="320" y2="336.6" gradientUnits="userSpaceOnUse">
<stop stop-color="#3419e8"/>

</linearGradient>
</defs>
</svg>
