<svg width="750" height="510" viewBox="0 0 750 510" fill="none" xmlns="http://www.w3.org/2000/svg">
<path d="M725.65 233.475C723.6 233.325 721.225 233.225 718.825 233.225C706.725 233.225 695.15 235.475 684.5 239.575L685.15 239.35C682.025 240.6 677.025 240.6 676.6 244.575C678.325 246.225 678.575 248.95 680.025 251.25C682.95 256.2 686.55 260.4 690.75 263.9L690.825 263.975C695.2 267.4 699.575 270.725 704.175 273.65C712.3 278.65 721.525 281.625 729.475 286.65C734 289.575 738.625 293.3 743.225 296.425C745.5 297.975 746.975 300.8 749.9 301.8V301.175C748.475 299.3 748.025 296.575 746.625 294.5C744.525 292.4 742.45 290.525 740.375 288.475C734.175 280.35 727 273.4 718.95 267.6L718.65 267.4C711.975 262.85 697.35 256.475 694.6 248.8L694.2 248.35C699.65 247.575 704.5 246.425 709.175 244.875L708.575 245.05C715.675 243.175 722.175 243.575 729.5 241.75C732.8 240.9 736.15 239.875 739.5 238.825V236.95C735.75 233.2 732.95 228.1 729.075 224.6C718.85 215.6 707.575 207.15 695.7 199.55L694.575 198.875C688.025 194.7 679.7 192 672.8 188.45C670.3 187.2 666.125 186.575 664.675 184.475C661.425 179.85 658.55 174.55 656.275 168.95L656.075 168.4C649.942 156.5 644.242 144.392 638.975 132.075C635.375 122.5 631.8 114.65 627.775 107.05L628.35 108.225C608.7 75.25 581.325 48.75 548.65 30.675L547.575 30.125C539.85 26.3 530.875 23.325 521.45 21.65L520.825 21.55C515.6 21.3 510.4 20.925 505.2 20.7C501.55 18.35 498.4 15.95 495.45 13.3L495.525 13.375C483.65 5.875 452.925 -10.375 444.175 11.125C438.55 24.675 452.525 38.05 457.35 44.925C461.2 49.5 464.7 54.625 467.725 60.05L467.975 60.55C469.45 64.175 469.85 67.9 471.325 71.675C474.95 82.975 478.625 92.25 482.8 101.225L482.15 99.675C484.625 104.65 487.2 108.875 490.075 112.875L489.875 112.575C491.55 114.85 494.425 115.925 495.1 119.675C492.95 124.2 491.275 129.45 490.35 134.925L490.3 135.275C487.6 143.575 486.025 153.15 486.025 163.075C486.025 178.6 489.85 193.225 496.6 206.075L496.35 205.575C499.7 210.75 507.65 222.25 518.3 217.85C527.675 214.1 525.6 202.225 528.3 191.775C528.925 189.275 528.525 187.625 529.8 185.925V186.4C532.725 192.275 535.675 197.875 538.35 203.75C545.9 214.625 554.875 223.875 565.125 231.5L565.45 231.725C570.45 235.475 574.425 241.975 580.675 244.275V243.65H580.2C578.775 242.1 577.2 240.725 575.475 239.55L575.375 239.5C571.5 235.7 567.9 231.6 564.65 227.275L564.45 227C556.3 216 548.55 203.55 541.825 190.475L541.1 188.95C537.675 182.4 534.8 175.325 532.05 168.85C530.8 166.35 530.8 162.6 528.7 161.35C525 165.5 521.675 170.125 518.9 175.1L518.7 175.5C515.5 184.825 513.4 195.6 512.85 206.775V207.05C512 207.275 512.425 207.05 512 207.5C505.325 205.875 503.025 198.95 500.525 193.125C497.125 183.975 495.15 173.375 495.15 162.35C495.15 153.45 496.425 144.85 498.825 136.725L498.675 137.375C500.15 133 506.4 119.2 503.9 115C502.6 111.025 498.475 108.75 496.175 105.525C493.45 101.675 490.95 97.3 488.875 92.675L488.675 92.175C483.675 80.5 481.175 67.55 475.75 55.875C472.475 49.775 469.025 44.525 465.15 39.625L465.325 39.85C461.2 35.075 457.4 29.75 454.1 24.1L453.825 23.6C452.8 21.325 451.325 17.55 452.975 15.05C453.275 13.6 454.425 12.475 455.9 12.25C458.65 10 466.4 12.925 469.1 14.175C477.025 17.175 483.85 20.7 490.175 24.85L489.775 24.6C492.7 26.65 495.875 30.625 499.625 31.65H504C510.675 33.125 518.225 32.1 524.475 33.925C535.95 37.8 545.875 42.65 555.05 48.6L554.525 48.275C582.125 66.1 604.225 90.2 619.175 118.675L619.675 119.7C622.175 124.5 623.275 128.925 625.55 133.925C629.925 144.225 635.325 154.65 639.775 164.6C644 175.3 649 184.55 654.95 193.075L654.65 192.625C657.775 197 670.325 199.275 675.95 201.55C681.875 203.625 686.625 205.6 691.225 207.825L690.3 207.425C697.475 211.8 704.475 216.8 711.225 221.6C714.65 223.975 725.075 229.2 725.7 233.4L725.65 233.475ZM432.55 416.3C432.55 416.675 432.575 417.1 432.575 417.525C432.575 431.475 426.35 443.95 416.5 452.35L416.425 452.4C405.625 461.2 391.7 466.55 376.525 466.55C375.35 466.55 374.175 466.525 373.025 466.45H373.175C354.7 466.2 337.7 460.2 323.775 450.175L324.025 450.35L331.425 435.475C342.15 441.475 354.9 445.2 368.45 445.725H368.6C369.275 445.775 370.05 445.8 370.85 445.8C379.15 445.8 386.875 443.2 393.2 438.775L393.075 438.85C398.8 434.5 402.45 427.7 402.45 420.05C402.45 419.9 402.45 419.775 402.45 419.625V419.65C402.45 409.35 395.275 400.6 382.2 393.25C370.075 386.6 345.875 372.725 345.875 372.725C333.925 365.325 326.1 352.3 326.1 337.45C326.1 336.925 326.1 336.4 326.125 335.875V335.95C326.1 335.475 326.1 334.925 326.1 334.375C326.1 321.5 331.775 309.95 340.75 302.1L340.8 302.05C350.35 293.95 362.825 289.025 376.45 289.025C377.325 289.025 378.175 289.05 379.025 289.075H378.9C379.125 289.075 379.4 289.075 379.675 289.075C395.65 289.075 410.525 293.85 422.925 302.075L422.625 301.9L415.975 316.775C406.2 312.375 394.8 309.725 382.8 309.6H382.75C382.15 309.55 381.475 309.525 380.775 309.525C373.775 309.525 367.325 311.975 362.275 316.075L362.325 316.025C357.6 319.95 354.6 325.825 354.575 332.4C354.575 342.65 361.875 351.45 375.375 358.95C387.65 365.675 412.45 379.875 412.45 379.875C424.65 387.05 432.725 400.1 432.725 415.05C432.725 415.5 432.725 415.975 432.7 416.425V416.35L432.55 416.3ZM484.35 429.575C477.525 415.95 473.55 399.9 473.55 382.925C473.55 380.25 473.65 377.6 473.85 375L473.825 375.35C473.825 331.833 487.05 310.067 513.5 310.05C514.15 310 514.925 309.975 515.725 309.975C527.6 309.975 538.025 316.175 543.95 325.525L544.025 325.65C550.8 339.2 554.775 355.2 554.775 372.1C554.775 374.7 554.675 377.275 554.5 379.825L554.525 379.475C554.525 423.342 541.3 445.292 514.85 445.325C514.175 445.375 513.4 445.4 512.625 445.4C500.75 445.4 490.3 439.2 484.375 429.85L484.3 429.725L484.35 429.575ZM587.2 468.375L555.45 452.75C558.35 450.325 560.95 447.775 563.35 445.025L563.425 444.95C576.25 427.65 583.95 405.875 583.95 382.325C583.95 379.6 583.85 376.9 583.65 374.225L583.675 374.575C583.675 317.408 561.233 288.808 516.35 288.775C515.35 288.725 514.175 288.7 513 288.7C493.825 288.7 476.6 297.125 464.875 310.5L464.825 310.575C452.05 327.875 444.375 349.625 444.375 373.175C444.375 375.825 444.475 378.45 444.675 381.05L444.65 380.7C444.425 383.225 444.3 386.175 444.3 389.15C444.3 411 451.15 431.25 462.8 447.875L462.575 447.55C473.8 459.5 489.725 466.95 507.35 466.95C509 466.95 510.625 466.875 512.225 466.75L512 466.775C512.225 466.775 512.525 466.775 512.8 466.775C520.575 466.775 528.1 465.65 535.225 463.575L534.675 463.725L576.075 487.85L587.325 468.425L587.2 468.375ZM690.9 464.15H608.725V291.4H636.375V442.925H690.9V464.15ZM305.875 336.7C298.7 388.8 282.275 435.825 258.25 477.95L259.25 476.025C249.625 494.55 231.425 507.45 210.05 509.525L209.8 509.55C203.325 509.2 197.3 507.65 191.825 505.125L192.125 505.25V489.825C195.55 490.35 199.5 490.65 203.525 490.65C203.75 490.65 203.975 490.65 204.225 490.65C204.625 490.675 205.05 490.675 205.5 490.675C212.725 490.675 219.35 488.05 224.45 483.675L224.4 483.7C229.9 479.175 233.425 472.425 233.625 464.825C232.3 453.875 229.775 443.875 226.15 434.45L226.45 435.3L194.775 336.7H223.2L245.925 410.425C249.975 420.825 252.325 432.875 252.325 445.45C252.325 445.475 252.325 445.5 252.325 445.5C264.375 413.95 273.525 377.15 278.175 338.975L278.4 336.675L305.875 336.7ZM180.375 464.15H151.425C150.608 418.133 147.8 372.208 143 326.375H142.75L98.7 464.15H76.675L32.925 326.375H32.625C29.2083 372.225 27.175 418.15 26.525 464.15H0.125C1.84167 402.733 6.10833 345.142 12.925 291.375H48.85L90.55 418.35H90.8L132.875 291.375H167.075C174.642 354.325 179.1 411.917 180.45 464.15H180.375ZM512.625 51.975C512.575 51.975 512.5 51.975 512.425 51.975C509.45 51.975 506.575 52.35 503.825 53.05L504.075 53V53.4H504.5C506.65 56.6 508.85 59.375 511.225 61.975L511.175 61.925C512.85 65.275 514.3 68.6 515.975 71.925L516.4 71.45C519.125 69.3 520.85 66 520.85 62.3C520.85 61.85 520.825 61.425 520.775 60.975V61.025C519.525 59.55 519.35 58.1 518.275 56.65C517.025 54.55 514.35 53.525 512.65 51.875L512.625 51.975Z" fill="url(#paint0_linear_2_16)"/>
<defs>
<linearGradient id="paint0_linear_2_16" x1="375.013" y1="0.408386" x2="375.013" y2="509.55" gradientUnits="userSpaceOnUse">
<stop stop-color="#3419e8"/>
</linearGradient>
</defs>
</svg>
