<svg  width="48px" height="48px" viewBox="0 0 668 398" fill="none" xmlns="http://www.w3.org/2000/svg">
<path fill-rule="evenodd" clip-rule="evenodd" d="M334 0.200012C245.1 0.200012 189.567 44.3667 167.333 132.733C200.667 88.5667 239.567 72 284 83.0333C309.367 89.3333 327.5 107.633 347.533 127.867C380.233 160.833 418.067 199 500.667 199C589.567 199 645.1 154.833 667.333 66.4667C634 110.633 595.133 127.2 550.667 116.167C525.3 109.867 507.167 91.5667 487.1 71.3334C454.433 38.3334 416.633 0.200012 334 0.200012ZM167.333 199C78.4333 199 22.9 243.167 0.666679 331.533C34 287.333 72.9 270.8 117.333 281.833C142.7 288.133 160.833 306.433 180.9 326.667C213.567 359.633 251.4 397.8 334.033 397.8C422.933 397.8 478.467 353.633 500.7 265.267C467.367 309.433 428.467 326 384.033 314.967C358.667 308.667 340.533 290.367 320.5 270.133C287.767 237.167 249.933 199 167.333 199Z" fill="url(#paint0_linear_2_22)"/>
<defs>
<linearGradient id="paint0_linear_2_22" x1="334" y1="0.200012" x2="334" y2="397.8" gradientUnits="userSpaceOnUse">
<stop stop-color="#3419e8"/>

</linearGradient>
</defs>
</svg>
