<svg width="449" height="448" viewBox="0 0 449 448" fill="none" xmlns="http://www.w3.org/2000/svg">
<path d="M439.551 204.047L244.001 8.44666C238.587 3.03809 231.248 0 223.596 0C215.943 0 208.604 3.03809 203.191 8.44666L162.531 49.0767L214.051 100.597C241.111 91.4567 266.731 117.367 257.441 144.277L307.101 193.937C341.331 182.137 368.281 224.937 342.571 250.627C316.081 277.117 272.361 247.757 286.571 213.287L240.221 166.997V288.847C265.521 301.387 262.481 330.697 249.301 343.847C242.861 350.282 234.13 353.898 225.026 353.898C215.922 353.898 207.19 350.282 200.751 343.847C183.181 326.247 189.681 296.937 212.001 287.847V164.847C191.201 156.337 187.401 134.107 193.361 119.847L142.571 68.9967L8.4508 203.137C3.03978 208.549 0 215.889 0 223.542C0 231.195 3.03978 238.535 8.4508 243.947L204.061 439.547C209.473 444.955 216.81 447.992 224.461 447.992C232.111 447.992 239.449 444.955 244.861 439.547L439.551 244.857C444.962 239.445 448.002 232.105 448.002 224.452C448.002 216.799 444.962 209.459 439.551 204.047Z" fill="url(#paint0_linear_2_8)"/>
<defs>
<linearGradient id="paint0_linear_2_8" x1="224" y1="0" x2="224.001" y2="447.992" gradientUnits="userSpaceOnUse">
<stop stop-color="#4525D2"/>
<stop offset="0.75" stop-color="#3419E8" stop-opacity="0.833333"/>
<stop offset="1" stop-color="#1A0CC5" stop-opacity="0"/>
</linearGradient>
</defs>
</svg>
