<svg  width="48px" viewBox="0 0 562 448" fill="none" xmlns="http://www.w3.org/2000/svg">
<path d="M326.5 169.4C326.5 147.3 310.9 135.1 283.5 135.1H233.1V206.3H275.6C308.4 206.2 326.5 193 326.5 169.4ZM510 156.6C500.5 125.7 499.1 87.8 500.2 58.5C501.3 28 477.5 0 445.5 0H116.7C84.6 0 60.9 28.1 62 58.5C63 87.8 61.7 125.7 52.2 156.6C42.6 187.6 26.5 207.2 0 209.7V238.2C26.4 240.7 42.6 260.3 52.2 291.3C61.7 322.2 63.1 360.1 62 389.4C60.9 419.9 84.7 447.9 116.7 447.9H445.4C477.5 447.9 501.2 419.8 500.1 389.4C499.1 360.1 500.4 322.2 509.9 291.3C519.5 260.3 535.6 240.7 562 238.2V209.7C535.7 207.2 519.5 187.6 510 156.6ZM293.2 343.1H195.3V104.8H292.7C336 104.8 364.4 128.2 364.4 164.2C364.4 189.5 345.3 212.1 320.9 216V217.3C354.1 220.9 376.4 243.9 376.4 275.6C376.4 317.7 345.1 343.1 293.2 343.1ZM283.2 234.4H233.1V312.8H285.4C319.6 312.8 337.7 299.1 337.7 273.3C337.7 247.6 319.1 234.4 283.2 234.4Z" fill="url(#paint0_linear_3_3)"/>
<defs>
<linearGradient id="paint0_linear_3_3" x1="281" y1="-112" x2="281" y2="447.9" gradientUnits="userSpaceOnUse">
<stop stop-color="#3419e8"/>

</linearGradient>
</defs>
</svg>
