<svg xmlns="http://www.w3.org/2000/svg" version="1.1" xmlns:xlink="http://www.w3.org/1999/xlink" xmlns:svgjs="http://svgjs.dev/svgjs" viewBox="0 0 800 800" opacity="0.19" width="800" height="800"><g stroke-width="2.5" stroke="hsl(261, 60%, 38%)" fill="none"><rect width="100" height="53.333333333333336" x="0" y="0"></rect><rect width="100" height="53.333333333333336" x="100" y="0"></rect><rect width="100" height="53.333333333333336" x="200" y="0"></rect><rect width="100" height="53.333333333333336" x="300" y="0"></rect><rect width="100" height="53.333333333333336" x="400" y="0"></rect><rect width="100" height="53.333333333333336" x="500" y="0"></rect><rect width="100" height="53.333333333333336" x="600" y="0"></rect><rect width="100" height="53.333333333333336" x="700" y="0"></rect><rect width="100" height="53.333333333333336" x="800" y="0"></rect><rect width="100" height="53.333333333333336" x="0" y="53.333333333333336"></rect><rect width="100" height="53.333333333333336" x="100" y="53.333333333333336"></rect><rect width="100" height="53.333333333333336" x="200" y="53.333333333333336"></rect><rect width="100" height="53.333333333333336" x="300" y="53.333333333333336"></rect><rect width="100" height="53.333333333333336" x="400" y="53.333333333333336"></rect><rect width="100" height="53.333333333333336" x="500" y="53.333333333333336"></rect><rect width="100" height="53.333333333333336" x="600" y="53.333333333333336"></rect><rect width="100" height="53.333333333333336" x="700" y="53.333333333333336"></rect><rect width="100" height="53.333333333333336" x="800" y="53.333333333333336"></rect><rect width="100" height="53.333333333333336" x="0" y="106.66666666666667"></rect><rect width="100" height="53.333333333333336" x="100" y="106.66666666666667"></rect><rect width="100" height="53.333333333333336" x="200" y="106.66666666666667"></rect><rect width="100" height="53.333333333333336" x="300" y="106.66666666666667"></rect><rect width="100" height="53.333333333333336" x="400" y="106.66666666666667"></rect><rect width="100" height="53.333333333333336" x="500" y="106.66666666666667"></rect><rect width="100" height="53.333333333333336" x="600" y="106.66666666666667"></rect><rect width="100" height="53.333333333333336" x="700" y="106.66666666666667"></rect><rect width="100" height="53.333333333333336" x="800" y="106.66666666666667"></rect><rect width="100" height="53.333333333333336" x="0" y="160"></rect><rect width="100" height="53.333333333333336" x="100" y="160"></rect><rect width="100" height="53.333333333333336" x="200" y="160"></rect><rect width="100" height="53.333333333333336" x="300" y="160"></rect><rect width="100" height="53.333333333333336" x="400" y="160"></rect><rect width="100" height="53.333333333333336" x="500" y="160"></rect><rect width="100" height="53.333333333333336" x="600" y="160"></rect><rect width="100" height="53.333333333333336" x="700" y="160"></rect><rect width="100" height="53.333333333333336" x="800" y="160"></rect><rect width="100" height="53.333333333333336" x="0" y="213.33333333333334"></rect><rect width="100" height="53.333333333333336" x="100" y="213.33333333333334"></rect><rect width="100" height="53.333333333333336" x="200" y="213.33333333333334"></rect><rect width="100" height="53.333333333333336" x="300" y="213.33333333333334"></rect><rect width="100" height="53.333333333333336" x="400" y="213.33333333333334"></rect><rect width="100" height="53.333333333333336" x="500" y="213.33333333333334"></rect><rect width="100" height="53.333333333333336" x="600" y="213.33333333333334"></rect><rect width="100" height="53.333333333333336" x="700" y="213.33333333333334"></rect><rect width="100" height="53.333333333333336" x="800" y="213.33333333333334"></rect><rect width="100" height="53.333333333333336" x="0" y="266.6666666666667"></rect><rect width="100" height="53.333333333333336" x="100" y="266.6666666666667"></rect><rect width="100" height="53.333333333333336" x="200" y="266.6666666666667"></rect><rect width="100" height="53.333333333333336" x="300" y="266.6666666666667"></rect><rect width="100" height="53.333333333333336" x="400" y="266.6666666666667"></rect><rect width="100" height="53.333333333333336" x="500" y="266.6666666666667"></rect><rect width="100" height="53.333333333333336" x="600" y="266.6666666666667"></rect><rect width="100" height="53.333333333333336" x="700" y="266.6666666666667"></rect><rect width="100" height="53.333333333333336" x="800" y="266.6666666666667"></rect><rect width="100" height="53.333333333333336" x="0" y="320"></rect><rect width="100" height="53.333333333333336" x="100" y="320"></rect><rect width="100" height="53.333333333333336" x="200" y="320"></rect><rect width="100" height="53.333333333333336" x="300" y="320"></rect><rect width="100" height="53.333333333333336" x="400" y="320"></rect><rect width="100" height="53.333333333333336" x="500" y="320"></rect><rect width="100" height="53.333333333333336" x="600" y="320"></rect><rect width="100" height="53.333333333333336" x="700" y="320"></rect><rect width="100" height="53.333333333333336" x="800" y="320"></rect><rect width="100" height="53.333333333333336" x="0" y="373.3333333333333"></rect><rect width="100" height="53.333333333333336" x="100" y="373.3333333333333"></rect><rect width="100" height="53.333333333333336" x="200" y="373.3333333333333"></rect><rect width="100" height="53.333333333333336" x="300" y="373.3333333333333"></rect><rect width="100" height="53.333333333333336" x="400" y="373.3333333333333"></rect><rect width="100" height="53.333333333333336" x="500" y="373.3333333333333"></rect><rect width="100" height="53.333333333333336" x="600" y="373.3333333333333"></rect><rect width="100" height="53.333333333333336" x="700" y="373.3333333333333"></rect><rect width="100" height="53.333333333333336" x="800" y="373.3333333333333"></rect><rect width="100" height="53.333333333333336" x="0" y="426.66666666666663"></rect><rect width="100" height="53.333333333333336" x="100" y="426.66666666666663"></rect><rect width="100" height="53.333333333333336" x="200" y="426.66666666666663"></rect><rect width="100" height="53.333333333333336" x="300" y="426.66666666666663"></rect><rect width="100" height="53.333333333333336" x="400" y="426.66666666666663"></rect><rect width="100" height="53.333333333333336" x="500" y="426.66666666666663"></rect><rect width="100" height="53.333333333333336" x="600" y="426.66666666666663"></rect><rect width="100" height="53.333333333333336" x="700" y="426.66666666666663"></rect><rect width="100" height="53.333333333333336" x="800" y="426.66666666666663"></rect><rect width="100" height="53.333333333333336" x="0" y="479.99999999999994"></rect><rect width="100" height="53.333333333333336" x="100" y="479.99999999999994"></rect><rect width="100" height="53.333333333333336" x="200" y="479.99999999999994"></rect><rect width="100" height="53.333333333333336" x="300" y="479.99999999999994"></rect><rect width="100" height="53.333333333333336" x="400" y="479.99999999999994"></rect><rect width="100" height="53.333333333333336" x="500" y="479.99999999999994"></rect><rect width="100" height="53.333333333333336" x="600" y="479.99999999999994"></rect><rect width="100" height="53.333333333333336" x="700" y="479.99999999999994"></rect><rect width="100" height="53.333333333333336" x="800" y="479.99999999999994"></rect><rect width="100" height="53.333333333333336" x="0" y="533.3333333333333"></rect><rect width="100" height="53.333333333333336" x="100" y="533.3333333333333"></rect><rect width="100" height="53.333333333333336" x="200" y="533.3333333333333"></rect><rect width="100" height="53.333333333333336" x="300" y="533.3333333333333"></rect><rect width="100" height="53.333333333333336" x="400" y="533.3333333333333"></rect><rect width="100" height="53.333333333333336" x="500" y="533.3333333333333"></rect><rect width="100" height="53.333333333333336" x="600" y="533.3333333333333"></rect><rect width="100" height="53.333333333333336" x="700" y="533.3333333333333"></rect><rect width="100" height="53.333333333333336" x="800" y="533.3333333333333"></rect><rect width="100" height="53.333333333333336" x="0" y="586.6666666666666"></rect><rect width="100" height="53.333333333333336" x="100" y="586.6666666666666"></rect><rect width="100" height="53.333333333333336" x="200" y="586.6666666666666"></rect><rect width="100" height="53.333333333333336" x="300" y="586.6666666666666"></rect><rect width="100" height="53.333333333333336" x="400" y="586.6666666666666"></rect><rect width="100" height="53.333333333333336" x="500" y="586.6666666666666"></rect><rect width="100" height="53.333333333333336" x="600" y="586.6666666666666"></rect><rect width="100" height="53.333333333333336" x="700" y="586.6666666666666"></rect><rect width="100" height="53.333333333333336" x="800" y="586.6666666666666"></rect><rect width="100" height="53.333333333333336" x="0" y="640"></rect><rect width="100" height="53.333333333333336" x="100" y="640"></rect><rect width="100" height="53.333333333333336" x="200" y="640"></rect><rect width="100" height="53.333333333333336" x="300" y="640"></rect><rect width="100" height="53.333333333333336" x="400" y="640"></rect><rect width="100" height="53.333333333333336" x="500" y="640"></rect><rect width="100" height="53.333333333333336" x="600" y="640"></rect><rect width="100" height="53.333333333333336" x="700" y="640"></rect><rect width="100" height="53.333333333333336" x="800" y="640"></rect><rect width="100" height="53.333333333333336" x="0" y="693.3333333333334"></rect><rect width="100" height="53.333333333333336" x="100" y="693.3333333333334"></rect><rect width="100" height="53.333333333333336" x="200" y="693.3333333333334"></rect><rect width="100" height="53.333333333333336" x="300" y="693.3333333333334"></rect><rect width="100" height="53.333333333333336" x="400" y="693.3333333333334"></rect><rect width="100" height="53.333333333333336" x="500" y="693.3333333333334"></rect><rect width="100" height="53.333333333333336" x="600" y="693.3333333333334"></rect><rect width="100" height="53.333333333333336" x="700" y="693.3333333333334"></rect><rect width="100" height="53.333333333333336" x="800" y="693.3333333333334"></rect><rect width="100" height="53.333333333333336" x="0" y="746.6666666666667"></rect><rect width="100" height="53.333333333333336" x="100" y="746.6666666666667"></rect><rect width="100" height="53.333333333333336" x="200" y="746.6666666666667"></rect><rect width="100" height="53.333333333333336" x="300" y="746.6666666666667"></rect><rect width="100" height="53.333333333333336" x="400" y="746.6666666666667"></rect><rect width="100" height="53.333333333333336" x="500" y="746.6666666666667"></rect><rect width="100" height="53.333333333333336" x="600" y="746.6666666666667"></rect><rect width="100" height="53.333333333333336" x="700" y="746.6666666666667"></rect><rect width="100" height="53.333333333333336" x="800" y="746.6666666666667"></rect><rect width="100" height="53.333333333333336" x="0" y="800.0000000000001"></rect><rect width="100" height="53.333333333333336" x="100" y="800.0000000000001"></rect><rect width="100" height="53.333333333333336" x="200" y="800.0000000000001"></rect><rect width="100" height="53.333333333333336" x="300" y="800.0000000000001"></rect><rect width="100" height="53.333333333333336" x="400" y="800.0000000000001"></rect><rect width="100" height="53.333333333333336" x="500" y="800.0000000000001"></rect><rect width="100" height="53.333333333333336" x="600" y="800.0000000000001"></rect><rect width="100" height="53.333333333333336" x="700" y="800.0000000000001"></rect><rect width="100" height="53.333333333333336" x="800" y="800.0000000000001"></rect></g></svg>